<?xml version="1.0" encoding="UTF-8"?><svg id="Layer_1" xmlns="http://www.w3.org/2000/svg" viewBox="0 0 189.31 199.02"><defs><style>.cls-1,.cls-2{fill:none;stroke:#ffe26a;stroke-miterlimit:10;stroke-width:18px;}.cls-2{stroke-linecap:round;}.cls-3{fill:#231f20;}</style></defs><path class="cls-3" d="M102.51,103.35c-2.57,13.35-15.62,20.02-27.63,20.02-12.7,0-20.59-5.31-17.68-21.84l6.52-37.31c.86-5,2.23-13.04-4.29-13.04-5.76,0-13.43,6.84-21.47,17.99l-7.61,43.59c-.93,5.35-5.57,9.25-11,9.29-2.58,.02-5.15,.09-7.71,.2-7.14,.31-12.71-6.13-11.47-13.17L15.84,20.24c1.03-5.61,1.54-10.16-3.78-10.16-3.6,0-6.69,1.82-10.47,4.25l-.17-.15C10.18,7.96,22.2,2.34,33.52,2.34c17.16,0,14.42,12.89,12.53,22.9l-8.19,43.58c13.81-19.67,28.55-27.66,41.31-27.66,14.42,0,18.02,9.4,15.62,22.75l-7.21,40.95c-1.2,6.82-1.03,11.83,3.78,11.83,4.29,0,9.27-5.76,10.98-13.35h.17Z"/><g><path class="cls-1" d="M141.02,73.26c0,14.73-4.96,28.3-13.29,39.14-11.75,15.28-30.21,25.12-50.97,25.12-35.49,0-64.26-28.77-64.26-64.26S41.27,9,76.76,9s64.26,28.77,64.26,64.26Z"/><line class="cls-2" x1="180.31" y1="158.89" x2="131.27" y2="116.16"/></g><path class="cls-3" d="M62.51,181.28c0-9.4,7.89-16.08,17.85-16.08,.72,0,1.43,.04,2.13,.11,8.52,.87,12.42,11.54,6.31,17.54-2.08,2.04-3.11,4.69-3.11,7.53,0,3.64,1.89,6.98,7.38,6.98,8.92,0,15.62-9.1,15.62-19.87,0-4.95-1.98-10.19-7.66-14.24-5.34-3.8-7.91-10.43-6.79-16.89l10.39-59.69c.24-1.36-.81-2.61-2.2-2.61h-11.25v-.3h11.79c1.16,0,1.8-.37,2.22-2.05,4.88-19.7,11.15-37.99,34.9-37.99,17.16,0,25.06,8.34,25.06,17.74s-7.55,16.83-18.36,16.83c-.08,0-.17,0-.25,0-9.29-.11-13.53-11.54-6.8-17.94,1.96-1.86,2.93-4.33,2.93-7.24,0-4.55-2.4-8.19-8.92-8.19-22.65,0-24.71,38.82,7.55,38.82h11.16v.3h-14.44c-1.08,0-2.01,.78-2.19,1.84l-12.89,72.78c-3.26,18.5-14.07,40.34-37.24,40.34-14.93,0-23.17-8.49-23.17-17.74Z"/></svg>